<svg xmlns="http://www.w3.org/2000/svg" width="800" height="800" viewBox="0 0 48 48"><defs><style>.a{fill:none;stroke:#000;stroke-linecap:round;stroke-linejoin:round}</style></defs><path d="M40.5,5.5H7.5a2,2,0,0,0-2,2v33a2,2,0,0,0,2,2h33a2,2,0,0,0,2-2V7.5A2,2,0,0,0,40.5,5.5Z" class="a"/><line x1="5.5" x2="42.5" y1="24" y2="24" class="a"/><line x1="24" x2="24" y1="5.5" y2="42.5" class="a"/><line x1="24" x2="42.5" y1="14.75" y2="14.75" class="a"/><line x1="33.25" x2="33.25" y1="5.5" y2="42.5" class="a"/><line x1="37.875" x2="37.875" y1="5.5" y2="42.5" class="a"/><line x1="28.625" x2="28.625" y1="24" y2="42.5" class="a"/><line x1="19.375" x2="19.375" y1="33.25" y2="42.5" class="a"/><line x1="10.125" x2="10.125" y1="33.25" y2="42.5" class="a"/><line x1="14.75" x2="14.75" y1="42.5" y2="24" class="a"/><line x1="5.5" x2="42.5" y1="33.25" y2="33.25" class="a"/><line x1="33.25" x2="42.5" y1="35.563" y2="35.563" class="a"/><line x1="33.25" x2="42.5" y1="40.188" y2="40.188" class="a"/><line x1="24" x2="42.5" y1="28.625" y2="28.625" class="a"/><line x1="33.25" x2="42.5" y1="19.375" y2="19.375" class="a"/><line x1="33.25" x2="42.5" y1="10.125" y2="10.125" class="a"/><line x1="5.5" x2="42.5" y1="37.875" y2="37.875" class="a"/><line x1="40.188" x2="40.188" y1="33.25" y2="42.5" class="a"/><line x1="35.563" x2="35.563" y1="33.25" y2="42.5" class="a"/></svg>